PathFileType	4	(x/y/z)	S06_P20_T63
DataRate	CameraRate	NumFrames	NumMarkers	Units	OrigDataRate	OrigDataStartFrame	OrigNumFrames
240	240	11	51	mm	240	45	355
Frame#	Time	Sternum			R.Acromium			L.Acromium			Top.Head			R.ASIS			L.ASIS			R.PSIS			L.PSIS			R.Great.Tro			L.Great.Tro			R.Iliac.Crest			L.Iliac.Crest			V.Sacral			R.Thigh.Upper.Post			R.Thigh.Lower.Ant			R.Thigh.Lower.Post			R.Thigh.Upper.Ant			R.Knee.Lat			R.Knee.Med			R.Shank.Upper.Post			R.Shank.Lower.Ant			R.Shank.Lower.Post			R.Shank.Upper.Ant			R.Ankle.Lat			R.Ankle.Med			R.Heel.Upper			R.Heel.Med			R.Heel.Lat			R.Toe.Lat			R.Toe.Med			R.Toe.Tip			L.Thigh.Upper.Post			L.Thigh.Lower.Ant			L.Thigh.Lower.Post			L.Thigh.Upper.Ant			L.Knee.Lat			L.Knee.Med			L.Shank.Upper.Post			L.Shank.Lower.Ant			L.Shank.Lower.Post			L.Shank.Upper.Ant			L.Ankle.Lat			L.Ankle.Med			L.Heel.Upper			L.Heel.Med			L.Heel.Lat			L.Toe.Lat			L.Toe.Med			L.Toe.Tip			Cervical.Spine			Back			
		X1	Y1	Z1	X2	Y2	Z2	X3	Y3	Z3	X4	Y4	Z4	X5	Y5	Z5	X6	Y6	Z6	X7	Y7	Z7	X8	Y8	Z8	X9	Y9	Z9	X10	Y10	Z10	X11	Y11	Z11	X12	Y12	Z12	X13	Y13	Z13	X14	Y14	Z14	X15	Y15	Z15	X16	Y16	Z16	X17	Y17	Z17	X18	Y18	Z18	X19	Y19	Z19	X20	Y20	Z20	X21	Y21	Z21	X22	Y22	Z22	X23	Y23	Z23	X24	Y24	Z24	X25	Y25	Z25	X26	Y26	Z26	X27	Y27	Z27	X28	Y28	Z28	X29	Y29	Z29	X30	Y30	Z30	X31	Y31	Z31	X32	Y32	Z32	X33	Y33	Z33	X34	Y34	Z34	X35	Y35	Z35	X36	Y36	Z36	X37	Y37	Z37	X38	Y38	Z38	X39	Y39	Z39	X40	Y40	Z40	X41	Y41	Z41	X42	Y42	Z42	X43	Y43	Z43	X44	Y44	Z44	X45	Y45	Z45	X46	Y46	Z46	X47	Y47	Z47	X48	Y48	Z48	X49	Y49	Z49	X50	Y50	Z50	X51	Y51	Z51	

45	0.18333	-1104.9	1282.5	312.94	-1221.8	1494.4	478.66	-1232.2	1490.2	125.95	-1228	1810.1	299.25	NaN	NaN	NaN	-1146.1	1047	185.97	-1361.7	1072.1	335.7	-1362.9	1078.4	255.91	-1230.2	975.62	486.51	-1237.5	982.13	127.06	-1254.4	1123.5	467.36	-1224.5	1123.9	148.49	-1377.4	1041.8	297.96	-1171.8	730.73	497.92	-1099.3	661.36	470.3	-1164.9	642.49	484.81	-1104.7	752.77	479.07	-1137.5	537.81	476.47	-1112.3	535.2	347.05	-1325	419.81	469.48	NaN	NaN	NaN	-1384.8	373.68	452.22	-1274	377.61	461.51	-1472.6	268.89	429.62	-1448.3	254.7	341.12	-1538	296.23	374.16	-1550.6	270.14	342.24	-1560.3	272.32	405.95	-1463	125.57	454.84	-1427.5	110.17	340.19	NaN	NaN	NaN	-1137.9	724.17	151.94	-1081.3	656.05	218.16	-1143.6	635.54	173.24	-1082.5	748.46	193.39	-1145.5	542.15	192.89	-1126.3	554.68	312.61	-1193.7	316.58	207.83	-1130.2	254.28	215.42	-1201	245.71	226.16	-1126.6	323.9	201.99	-1159.2	104.9	232.84	-1155.6	111.8	324.03	-1236.1	70.291	274.75	-1233.3	43.743	307.03	-1228.3	45.302	245.37	-1047.7	45.729	216.38	-1033.8	51.397	334.93	-960.4	65.733	285.73	-1288.9	1547.4	304.08	-1353.6	1277.8	308.27
46	0.1875	-1100	1282.7	312.99	-1216.9	1494.7	478.55	-1226.8	1490.3	125.77	-1222.9	1810.4	298.94	NaN	NaN	NaN	-1142.1	1047.3	185.79	-1357	1072.5	335.45	-1358.4	1078.9	255.59	-1224.6	975.86	486.19	-1232.9	982.64	126.76	-1249.7	1123.7	467.16	-1219.7	1124.3	148.31	-1372.7	1042.2	297.66	-1163.4	732.06	497.69	-1090	663.78	469.77	-1155.1	643.92	484.51	-1096.7	755.15	478.61	-1126.5	539.82	476.2	-1101.8	537.46	346.57	-1313.8	421.77	469.43	NaN	NaN	NaN	-1373.8	375.66	452.37	-1262.9	379.72	461.47	-1461.3	271.23	429.86	-1437.4	256.43	341.38	-1527.1	297.54	374.12	-1539.8	271.08	342.53	-1549.5	274.07	406.29	-1451	128.51	456.5	-1415.8	111.91	341.94	NaN	NaN	NaN	-1134.6	724.23	151.44	-1078.3	655.8	217.55	-1140.8	635.63	172.73	-1079.1	748.21	192.8	-1143.2	542.17	192.49	-1123.7	554.63	312.16	-1192.6	316.76	207.67	-1129.5	254.18	215.12	-1200.3	245.95	226.08	-1125.5	323.73	201.61	-1159.1	104.91	232.75	-1155.4	111.91	323.88	-1236.1	70.405	274.73	-1233.3	43.838	307.03	-1228.3	45.388	245.35	-1047.7	45.595	216.26	-1033.5	51.42	334.78	-960.31	65.41	285.63	-1283.3	1547.7	303.77	-1348.6	1278.3	307.89
47	0.19167	-1095.2	1283	313.03	-1212.1	1495	478.45	-1221.4	1490.5	125.6	-1217.7	1810.8	298.63	NaN	NaN	NaN	-1137.8	1047.5	185.61	-1352.3	1072.8	335.2	-1353.9	1079.4	255.28	-1219	976.18	485.88	-1228.2	983.15	126.47	-1244.9	1123.9	466.96	-1214.9	1124.8	148.13	-1368	1042.6	297.38	-1155.1	733.49	497.41	-1080.8	666.29	469.25	-1145.5	645.46	484.15	-1088.8	757.59	478.13	-1115.6	541.92	475.89	-1091.4	539.79	346.05	-1302.7	423.61	469.31	NaN	NaN	NaN	-1362.8	377.45	452.46	-1251.9	381.78	461.43	-1449.8	273.21	430.09	-1426.4	257.87	341.62	-1516	298.41	374.09	-1528.8	271.56	342.82	-1538.5	275.32	406.65	-1438.6	131.14	458.11	-1403.5	113.41	343.61	NaN	NaN	NaN	-1131.4	724.29	150.96	-1075.3	655.54	216.93	-1138	635.72	172.24	-1075.8	747.95	192.22	-1140.9	542.18	192.11	-1121.1	554.58	311.73	-1191.6	316.94	207.53	-1128.8	254.08	214.82	-1199.5	246.21	226.01	-1124.4	323.58	201.25	-1159	104.92	232.66	-1155.2	112.03	323.74	-1236.1	70.531	274.72	-1233.3	43.941	307.03	-1228.2	45.48	245.33	-1047.7	45.465	216.15	-1033.3	51.461	334.61	-960.22	65.102	285.53	-1277.8	1548.1	303.48	-1343.7	1278.8	307.53
48	0.19583	-1090.3	1283.2	313.08	-1207.2	1495.4	478.35	-1216	1490.6	125.44	-1212.4	1811.2	298.33	NaN	NaN	NaN	-1133.4	1047.8	185.41	-1347.6	1073.2	334.95	-1349.4	1079.9	254.97	-1213.4	976.57	485.57	-1223.7	983.63	126.19	-1240.2	1124.2	466.74	-1210.1	1125.2	147.95	-1363.3	1043	297.11	-1146.9	734.99	497.07	-1071.8	668.88	468.74	-1136	647.09	483.75	-1081	760.08	477.63	-1104.8	544.12	475.53	-1081.2	542.2	345.51	-1291.5	425.33	469.11	NaN	NaN	NaN	-1351.8	379.02	452.48	-1240.8	383.79	461.39	-1438.1	274.82	430.32	-1415.1	259	341.84	-1504.7	298.84	374.08	-1517.6	271.57	343.13	-1527.2	276.07	407.02	-1425.7	133.42	459.66	-1390.9	114.69	345.19	NaN	NaN	NaN	-1128.3	724.34	150.5	-1072.4	655.28	216.32	-1135.3	635.79	171.77	-1072.4	747.68	191.63	-1138.7	542.19	191.75	-1118.5	554.52	311.31	-1190.5	317.14	207.4	-1128.1	254	214.53	-1198.8	246.47	225.95	-1123.4	323.44	200.9	-1158.9	104.94	232.58	-1155	112.15	323.6	-1236.1	70.666	274.71	-1233.3	44.053	307.03	-1228.2	45.577	245.32	-1047.7	45.336	216.05	-1033.1	51.514	334.44	-960.12	64.805	285.42	-1272.3	1548.5	303.21	-1338.8	1279.3	307.19
49	0.2	-1085.5	1283.5	313.12	-1202.4	1495.7	478.27	-1210.7	1490.8	125.29	-1207.2	1811.6	298.03	NaN	NaN	NaN	-1128.9	1048.1	185.21	-1342.8	1073.6	334.71	-1344.9	1080.4	254.66	-1208	977.04	485.26	-1219.1	984.1	125.93	-1235.4	1124.6	466.51	-1205.3	1125.6	147.77	-1358.6	1043.4	296.85	-1138.8	736.57	496.69	-1062.8	671.53	468.25	-1126.7	648.8	483.29	-1073.3	762.61	477.12	-1094.2	546.39	475.13	-1071	544.65	344.95	-1280.4	426.91	468.85	-1289.2	340.15	448.13	-1340.7	380.38	452.45	-1229.8	385.72	461.34	-1426.1	276.06	430.54	-1403.7	259.84	342.04	-1493.4	298.83	374.1	-1506.3	271.14	343.46	-1515.8	276.32	407.41	-1412.4	135.36	461.13	-1377.9	115.73	346.66	NaN	NaN	NaN	-1125.2	724.37	150.05	-1069.5	655	215.72	-1132.6	635.87	171.33	-1069.1	747.39	191.03	-1136.5	542.2	191.41	-1115.9	554.46	310.91	-1189.5	317.34	207.29	-1127.4	253.94	214.26	-1198.1	246.73	225.91	-1122.3	323.31	200.56	-1158.8	104.96	232.49	-1154.8	112.28	323.47	-1236.1	70.813	274.71	-1233.3	44.173	307.04	-1228.1	45.681	245.32	-1047.7	45.21	215.94	-1032.9	51.575	334.27	-960.03	64.517	285.31	-1266.9	1548.9	302.94	-1333.9	1279.7	306.85
50	0.20417	-1080.6	1283.8	313.16	-1197.6	1496.1	478.19	-1205.4	1491	125.15	-1201.9	1812	297.74	NaN	NaN	NaN	-1124.3	1048.4	185	-1338.1	1074.1	334.47	-1340.4	1080.9	254.36	-1202.6	977.58	484.95	-1214.6	984.56	125.69	-1230.6	1125	466.27	-1200.5	1126.1	147.59	-1353.9	1043.9	296.61	-1130.8	738.2	496.27	-1054	674.24	467.77	-1117.4	650.58	482.8	-1065.6	765.16	476.59	-1083.7	548.72	474.7	-1060.9	547.15	344.37	-1269.4	428.34	468.53	-1279.4	340.86	447.63	-1329.6	381.51	452.36	-1218.7	387.56	461.29	-1414	276.92	430.77	-1392.1	260.36	342.24	-1481.8	298.4	374.16	-1494.7	270.28	343.82	-1504.1	276.08	407.83	-1398.7	136.93	462.51	-1364.6	116.52	348.02	NaN	NaN	NaN	-1122.1	724.41	149.62	-1066.7	654.72	215.12	-1130	635.94	170.91	-1065.8	747.1	190.44	-1134.4	542.22	191.09	-1113.3	554.4	310.52	-1188.5	317.55	207.19	-1126.7	253.88	213.99	-1197.4	247	225.88	-1121.3	323.2	200.24	-1158.7	104.99	232.41	-1154.6	112.41	323.35	-1236.1	70.971	274.71	-1233.3	44.301	307.05	-1228.1	45.789	245.32	-1047.6	45.085	215.84	-1032.6	51.639	334.11	-959.93	64.237	285.19	-1261.6	1549.3	302.7	-1329	1280.2	306.52
51	0.20833	-1075.8	1284.1	313.19	-1192.8	1496.4	478.11	-1200.1	1491.2	125.02	-1196.6	1812.4	297.46	NaN	NaN	NaN	-1119.6	1048.7	184.79	-1333.4	1074.6	334.24	-1335.9	1081.5	254.07	-1197.3	978.18	484.65	-1210.1	985	125.45	-1225.8	1125.4	466.03	-1195.7	1126.5	147.4	-1349.2	1044.4	296.38	-1122.9	739.88	495.81	-1045.2	676.98	467.3	-1108.3	652.41	482.28	-1058.1	767.72	476.05	-1073.3	551.1	474.23	-1051	549.67	343.78	-1258.3	429.62	468.17	-1269.1	341.54	447.16	-1318.5	382.4	452.23	-1207.6	389.3	461.24	-1401.7	277.4	431	-1380.2	260.59	342.42	-1470.2	297.54	374.25	-1483	268.99	344.2	-1492.3	275.35	408.27	-1384.7	138.14	463.81	-1350.8	117.08	349.27	-1301.5	83.506	401.61	-1119.1	724.43	149.21	-1063.8	654.43	214.52	-1127.4	636.01	170.51	-1062.5	746.79	189.85	-1132.3	542.24	190.79	-1110.7	554.34	310.15	-1187.5	317.77	207.09	-1126.1	253.83	213.74	-1196.7	247.28	225.85	-1120.3	323.09	199.93	-1158.6	105.02	232.33	-1154.4	112.54	323.23	-1236.1	71.138	274.72	-1233.3	44.439	307.07	-1228.1	45.903	245.33	-1047.6	44.961	215.73	-1032.4	51.703	333.94	-959.82	63.962	285.07	-1256.3	1549.7	302.46	-1324.1	1280.7	306.2
52	0.2125	-1070.9	1284.5	313.22	-1187.9	1496.8	478.03	-1194.9	1491.4	124.89	-1191.4	1812.8	297.19	NaN	NaN	NaN	-1114.9	1049	184.57	-1328.6	1075	334.02	-1331.3	1082.1	253.79	-1192.1	978.83	484.35	-1205.7	985.44	125.23	-1221	1125.9	465.78	-1190.8	1126.9	147.21	-1344.5	1044.8	296.16	-1115.1	741.59	495.34	-1036.6	679.75	466.84	-1099.4	654.29	481.74	-1050.7	770.28	475.5	-1063.1	553.52	473.73	-1041.1	552.22	343.18	-1247.4	430.74	467.76	-1258.4	342.17	446.72	-1307.3	383.04	452.05	-1196.5	390.94	461.18	-1389.3	277.5	431.24	-1368.2	260.51	342.6	-1458.4	296.28	374.38	-1471	267.3	344.6	-1480.1	274.14	408.72	-1370.3	138.98	465	-1336.8	117.39	350.39	-1287.7	84.109	402.2	-1116.1	724.45	148.81	-1061	654.13	213.94	-1124.8	636.07	170.13	-1059.2	746.48	189.25	-1130.2	542.25	190.5	-1108.2	554.28	309.79	-1186.5	318	207.01	-1125.4	253.8	213.49	-1196	247.56	225.84	-1119.3	323	199.63	-1158.5	105.05	232.25	-1154.2	112.69	323.11	-1236.1	71.317	274.73	-1233.3	44.584	307.09	-1228	46.022	245.34	-1047.6	44.838	215.63	-1032.3	51.763	333.79	-959.71	63.692	284.95	-1251	1550.1	302.24	-1319.2	1281.2	305.89
53	0.21667	-1066	1284.8	313.23	-1183.1	1497.2	477.95	-1189.7	1491.7	124.76	-1186	1813.2	296.93	NaN	NaN	NaN	-1110.1	1049.3	184.35	-1323.8	1075.5	333.8	-1326.7	1082.6	253.52	-1187	979.54	484.05	-1201.2	985.87	125.01	-1216.2	1126.5	465.52	-1185.9	1127.4	147.01	-1339.7	1045.3	295.95	-1107.4	743.33	494.85	-1028.1	682.52	466.37	-1090.5	656.2	481.17	-1043.4	772.83	474.94	-1053.1	555.97	473.21	-1031.3	554.78	342.57	-1236.4	431.68	467.32	-1247.3	342.72	446.32	-1296	383.43	451.84	-1185.3	392.45	461.1	-1376.6	277.22	431.48	-1356	260.13	342.78	-1446.4	294.61	374.56	-1458.9	265.21	345.03	-1467.8	272.47	409.2	-1355.6	139.47	466.09	-1322.4	117.48	351.4	-1273.2	84.678	402.77	-1113.1	724.47	148.43	-1058.2	653.82	213.38	-1122.3	636.14	169.77	-1056	746.16	188.67	-1128.1	542.28	190.23	-1105.6	554.22	309.44	-1185.5	318.23	206.92	-1124.7	253.77	213.26	-1195.3	247.85	225.82	-1118.3	322.91	199.35	-1158.4	105.08	232.17	-1154	112.84	322.99	-1236.2	71.505	274.75	-1233.3	44.737	307.11	-1228	46.145	245.36	-1047.5	44.717	215.54	-1032.1	51.817	333.65	-959.6	63.428	284.82	-1245.9	1550.5	302.03	-1314.2	1281.7	305.59
54	0.22083	-1061.1	1285.2	313.24	-1178.3	1497.6	477.86	-1184.6	1491.9	124.64	-1180.7	1813.6	296.68	NaN	NaN	NaN	-1105.3	1049.7	184.13	-1319	1076	333.59	-1322.1	1083.2	253.28	-1181.9	980.27	483.76	-1196.8	986.29	124.8	-1211.4	1127	465.27	-1181	1127.8	146.8	-1335	1045.8	295.76	-1099.8	745.09	494.34	-1019.7	685.28	465.88	-1081.9	658.12	480.59	-1036.1	775.34	474.36	-1043.2	558.42	472.65	-1021.7	557.34	341.95	-1225.5	432.45	466.85	-1235.9	343.18	445.98	-1284.8	383.57	451.59	-1174.2	393.83	461.02	-1363.8	276.57	431.72	-1343.6	259.45	342.95	-1434.3	292.55	374.78	-1446.6	262.74	345.48	-1455.3	270.35	409.69	-1340.6	139.6	467.08	-1307.7	117.33	352.28	-1258.1	85.195	403.3	-1110.1	724.49	148.07	-1055.4	653.51	212.83	-1119.7	636.2	169.43	-1052.7	745.83	188.09	-1126.1	542.3	189.97	-1103	554.15	309.11	-1184.6	318.48	206.85	-1124	253.75	213.05	-1194.5	248.15	225.81	-1117.4	322.84	199.08	-1158.3	105.12	232.08	-1153.7	113	322.87	-1236.2	71.703	274.77	-1233.3	44.897	307.14	-1227.9	46.272	245.38	-1047.5	44.596	215.44	-1032	51.863	333.52	-959.49	63.17	284.69	-1240.7	1550.9	301.82	-1309.3	1282.2	305.29
55	0.225	-1056.2	1285.6	313.24	-1173.5	1498	477.77	-1179.4	1492.2	124.52	-1175.4	1813.9	296.44	NaN	NaN	NaN	-1100.5	1050	183.9	-1314.2	1076.5	333.4	-1317.5	1083.7	253.05	-1176.9	981.03	483.48	-1192.4	986.7	124.6	-1206.5	1127.6	465.02	-1176	1128.2	146.59	-1330.2	1046.3	295.57	-1092.3	746.85	493.84	-1011.5	688.01	465.38	-1073.3	660.06	479.99	-1029	777.82	473.78	-1033.5	560.87	472.08	-1012.1	559.9	341.32	-1214.6	433.04	466.37	-1224.3	343.54	445.69	-1273.4	383.45	451.32	-1163	395.06	460.93	-1350.8	275.55	431.96	-1331	258.49	343.11	-1422	290.1	375.03	-1434.1	259.9	345.94	-1442.5	267.79	410.19	-1325.3	139.39	467.95	-1292.6	116.97	353.04	-1242.5	85.649	403.79	-1107.1	724.5	147.72	-1052.7	653.2	212.3	-1117.2	636.27	169.11	-1049.4	745.5	187.52	-1124	542.33	189.73	-1100.5	554.08	308.8	-1183.6	318.74	206.77	-1123.3	253.74	212.85	-1193.8	248.45	225.8	-1116.4	322.78	198.82	-1158.2	105.16	232	-1153.5	113.16	322.75	-1236.3	71.91	274.79	-1233.3	45.061	307.16	-1227.9	46.402	245.4	-1047.5	44.477	215.35	-1031.9	51.9	333.41	-959.36	62.916	284.56	-1235.6	1551.3	301.63	-1304.4	1282.7	305.01
